<svg width="179" height="26" viewBox="0 0 179 26" fill="none" xmlns="http://www.w3.org/2000/svg">
<g clip-path="url(#clip0_23_16)">
<g filter="url(#filter0_d_23_16)">
<path fill-rule="evenodd" clip-rule="evenodd" d="M22.4774 3.9421H22.4754L14.1307 15.5689L19.0452 23.3226H17.2387L13.122 16.9742L12.6752 17.5967L16.2839 23.3226H14.1936L11.4881 19.1161L8.6968 23.3226H6.65809L10.454 17.6945L10.0169 17.0367L6.78713 21.645L5.54842 23.3226H0.283901L1.41938 21.645L7.35487 12.9484L1.31616 3.94212L0.206482 2.26454L5.67745 2.26454L6.76132 3.94212H6.76116L10.0116 9.0704L13.6128 3.92383L13.6139 3.92384L14.8722 2.26453L23.7678 2.26453L22.4774 3.9421ZM8.92906 10.6516L4.671 3.94212H3.63872L8.48065 11.2585L8.92906 10.6516ZM10.1149 12.3371L10.552 13.011L10.0789 13.6736L9.64044 13.011L10.1149 12.3371ZM11.5889 11.5588L11.1502 10.8667L16.0257 3.9421L20.0495 3.9421L13.0865 13.9216L12.6452 13.129L18.7355 4.61291H16.5162L11.5889 11.5588ZM11.6508 14.7055L11.1936 15.3579L11.6272 16.013L12.0789 15.3657L11.6508 14.7055ZM8.45799 14.6905L3.56143 21.645H4.46455L8.88932 15.3397L8.45799 14.6905Z" fill="#F2F2F2"/>
</g>
</g>
<path d="M37.66 20V5.4H41.74C42.7 5.4 43.5333 5.58667 44.24 5.96C44.9467 6.32 45.4933 6.83333 45.88 7.5C46.28 8.16667 46.48 8.95333 46.48 9.86V15.52C46.48 16.4133 46.28 17.2 45.88 17.88C45.4933 18.56 44.9467 19.0867 44.24 19.46C43.5333 19.82 42.7 20 41.74 20H37.66ZM39.82 18.04H41.74C42.54 18.04 43.1667 17.82 43.62 17.38C44.0867 16.9267 44.32 16.3067 44.32 15.52V9.86C44.32 9.08667 44.0867 8.48 43.62 8.04C43.1667 7.58667 42.54 7.36 41.74 7.36H39.82V18.04ZM53.7922 20.2C52.8989 20.2 52.1122 20.0267 51.4322 19.68C50.7655 19.32 50.2522 18.82 49.8922 18.18C49.5322 17.54 49.3522 16.7933 49.3522 15.94V13.06C49.3522 12.1933 49.5322 11.4467 49.8922 10.82C50.2522 10.18 50.7655 9.68667 51.4322 9.34C52.1122 8.98 52.8989 8.8 53.7922 8.8C54.6989 8.8 55.4855 8.98 56.1522 9.34C56.8189 9.68667 57.3322 10.18 57.6922 10.82C58.0522 11.4467 58.2322 12.1933 58.2322 13.06V15.02H51.4322V15.94C51.4322 16.7533 51.6322 17.3733 52.0322 17.8C52.4455 18.2267 53.0389 18.44 53.8122 18.44C54.4389 18.44 54.9455 18.3333 55.3322 18.12C55.7189 17.8933 55.9589 17.5667 56.0522 17.14H58.1922C58.0322 18.0733 57.5522 18.82 56.7522 19.38C55.9522 19.9267 54.9655 20.2 53.7922 20.2ZM56.1522 13.72V13.04C56.1522 12.24 55.9522 11.62 55.5522 11.18C55.1522 10.74 54.5655 10.52 53.7922 10.52C53.0322 10.52 52.4455 10.74 52.0322 11.18C51.6322 11.62 51.4322 12.2467 51.4322 13.06V13.56L56.3122 13.54L56.1522 13.72ZM64.1644 20L60.5244 9H62.7244L64.9844 16.04C65.131 16.4533 65.2577 16.8733 65.3644 17.3C65.4844 17.7133 65.571 18.04 65.6244 18.28C65.691 18.04 65.7777 17.7133 65.8844 17.3C66.0044 16.8733 66.1244 16.4533 66.2444 16.04L68.4644 9H70.6444L67.0044 20H64.1644Z" fill="white"/>
<mask id="mask0_23_16" style="mask-type:alpha" maskUnits="userSpaceOnUse" x="72" y="4" width="106" height="20">
<path d="M72.4 20L76.32 12.46L72.66 5.4H75.96L77.48 8.6C77.6267 8.89333 77.7467 9.16 77.84 9.4C77.9467 9.64 78.0133 9.81333 78.04 9.92C78.0667 9.81333 78.1267 9.64 78.22 9.4C78.3133 9.16 78.4267 8.89333 78.56 8.6L80.12 5.4H83.34L79.68 12.46L83.6 20H80.3L78.54 16.4C78.4067 16.1067 78.2867 15.8333 78.18 15.58C78.0733 15.3267 77.9933 15.1333 77.94 15C77.9 15.1333 77.8333 15.3267 77.74 15.58C77.6467 15.8333 77.5267 16.1067 77.38 16.4L75.62 20H72.4ZM85.1122 23.6V9H88.0122V11.1H88.7122L88.0122 11.8C88.0122 10.8533 88.2722 10.12 88.7922 9.6C89.3122 9.06667 90.0255 8.8 90.9322 8.8C92.0389 8.8 92.9255 9.19333 93.5922 9.98C94.2589 10.7533 94.5922 11.7933 94.5922 13.1V15.9C94.5922 16.7667 94.4389 17.5267 94.1322 18.18C93.8389 18.82 93.4189 19.32 92.8722 19.68C92.3255 20.0267 91.6789 20.2 90.9322 20.2C90.0255 20.2 89.3122 19.94 88.7922 19.42C88.2722 18.8867 88.0122 18.1467 88.0122 17.2L88.7122 17.9H88.0122L88.1122 20.6V23.6H85.1122ZM89.8522 17.6C90.4122 17.6 90.8389 17.4467 91.1322 17.14C91.4389 16.82 91.5922 16.3733 91.5922 15.8V13.2C91.5922 12.6133 91.4389 12.1667 91.1322 11.86C90.8389 11.5533 90.4122 11.4 89.8522 11.4C89.3055 11.4 88.8789 11.56 88.5722 11.88C88.2655 12.1867 88.1122 12.6267 88.1122 13.2V15.8C88.1122 16.3733 88.2655 16.82 88.5722 17.14C88.8789 17.4467 89.3055 17.6 89.8522 17.6ZM101.604 20.2C100.631 20.2 99.7777 20.02 99.0444 19.66C98.3244 19.2867 97.7644 18.7733 97.3644 18.12C96.9777 17.4533 96.7844 16.68 96.7844 15.8V13.2C96.7844 12.32 96.9777 11.5533 97.3644 10.9C97.7644 10.2333 98.3244 9.72 99.0444 9.36C99.7777 8.98667 100.631 8.8 101.604 8.8C102.578 8.8 103.418 8.98667 104.124 9.36C104.844 9.72 105.398 10.2333 105.784 10.9C106.184 11.5533 106.384 12.32 106.384 13.2V15.2H99.6444V15.8C99.6444 16.4933 99.811 17.02 100.144 17.38C100.478 17.7267 100.978 17.9 101.644 17.9C102.111 17.9 102.484 17.82 102.764 17.66C103.058 17.5 103.251 17.28 103.344 17H106.284C106.044 17.96 105.498 18.7333 104.644 19.32C103.804 19.9067 102.791 20.2 101.604 20.2ZM103.524 13.66V13.16C103.524 12.48 103.364 11.96 103.044 11.6C102.738 11.24 102.258 11.06 101.604 11.06C100.951 11.06 100.458 11.2467 100.124 11.62C99.8044 11.9933 99.6444 12.52 99.6444 13.2V13.5L103.724 13.46L103.524 13.66ZM109.017 20V9H111.817V11.1H112.577L111.717 12.38C111.717 11.1933 111.99 10.3 112.537 9.7C113.083 9.1 113.883 8.8 114.937 8.8C116.15 8.8 117.09 9.16667 117.757 9.9C118.437 10.6333 118.777 11.6667 118.777 13V13.9H115.577V13.2C115.577 12.6 115.41 12.1333 115.077 11.8C114.757 11.4667 114.323 11.3 113.777 11.3C113.203 11.3 112.763 11.4667 112.457 11.8C112.163 12.1333 112.017 12.6 112.017 13.2V20H109.017ZM120.569 20V17.28H124.369V11.7H121.069V9H127.169V17.28H130.369V20H120.569ZM125.569 7.26C125.022 7.26 124.582 7.12 124.249 6.84C123.929 6.56 123.769 6.18 123.769 5.7C123.769 5.22 123.929 4.84 124.249 4.56C124.582 4.28 125.022 4.14 125.569 4.14C126.115 4.14 126.549 4.28 126.869 4.56C127.202 4.84 127.369 5.22 127.369 5.7C127.369 6.18 127.202 6.56 126.869 6.84C126.549 7.12 126.115 7.26 125.569 7.26ZM136.981 20.2C136.008 20.2 135.154 20.02 134.421 19.66C133.701 19.2867 133.141 18.7733 132.741 18.12C132.354 17.4533 132.161 16.68 132.161 15.8V13.2C132.161 12.32 132.354 11.5533 132.741 10.9C133.141 10.2333 133.701 9.72 134.421 9.36C135.154 8.98667 136.008 8.8 136.981 8.8C137.954 8.8 138.794 8.98667 139.501 9.36C140.221 9.72 140.774 10.2333 141.161 10.9C141.561 11.5533 141.761 12.32 141.761 13.2V15.2H135.021V15.8C135.021 16.4933 135.188 17.02 135.521 17.38C135.854 17.7267 136.354 17.9 137.021 17.9C137.488 17.9 137.861 17.82 138.141 17.66C138.434 17.5 138.628 17.28 138.721 17H141.661C141.421 17.96 140.874 18.7333 140.021 19.32C139.181 19.9067 138.168 20.2 136.981 20.2ZM138.901 13.66V13.16C138.901 12.48 138.741 11.96 138.421 11.6C138.114 11.24 137.634 11.06 136.981 11.06C136.328 11.06 135.834 11.2467 135.501 11.62C135.181 11.9933 135.021 12.52 135.021 13.2V13.5L139.101 13.46L138.901 13.66ZM144.073 20V9H146.973V11.1H147.853L146.973 11.8C146.973 10.8667 147.24 10.1333 147.773 9.6C148.306 9.06667 149.026 8.8 149.933 8.8C151 8.8 151.853 9.17333 152.493 9.92C153.146 10.6667 153.473 11.66 153.473 12.9V20H150.473V13.2C150.473 12.6267 150.32 12.1867 150.013 11.88C149.72 11.56 149.3 11.4 148.753 11.4C148.22 11.4 147.806 11.56 147.513 11.88C147.22 12.1867 147.073 12.6267 147.073 13.2V20H144.073ZM160.605 20.2C159.632 20.2 158.779 20.02 158.045 19.66C157.312 19.2867 156.745 18.7733 156.345 18.12C155.945 17.4533 155.745 16.68 155.745 15.8V13.2C155.745 12.3067 155.945 11.5333 156.345 10.88C156.745 10.2267 157.312 9.72 158.045 9.36C158.779 8.98667 159.632 8.8 160.605 8.8C162.059 8.8 163.219 9.16667 164.085 9.9C164.952 10.6333 165.412 11.6333 165.465 12.9H162.465C162.425 12.4333 162.239 12.0667 161.905 11.8C161.585 11.5333 161.152 11.4 160.605 11.4C160.005 11.4 159.545 11.5533 159.225 11.86C158.905 12.1667 158.745 12.6133 158.745 13.2V15.8C158.745 16.3733 158.905 16.82 159.225 17.14C159.545 17.4467 160.005 17.6 160.605 17.6C161.152 17.6 161.585 17.4733 161.905 17.22C162.239 16.9533 162.425 16.58 162.465 16.1H165.465C165.412 17.3667 164.952 18.3667 164.085 19.1C163.219 19.8333 162.059 20.2 160.605 20.2ZM172.358 20.2C171.384 20.2 170.531 20.02 169.798 19.66C169.078 19.2867 168.518 18.7733 168.118 18.12C167.731 17.4533 167.538 16.68 167.538 15.8V13.2C167.538 12.32 167.731 11.5533 168.118 10.9C168.518 10.2333 169.078 9.72 169.798 9.36C170.531 8.98667 171.384 8.8 172.358 8.8C173.331 8.8 174.171 8.98667 174.878 9.36C175.598 9.72 176.151 10.2333 176.538 10.9C176.938 11.5533 177.138 12.32 177.138 13.2V15.2H170.398V15.8C170.398 16.4933 170.564 17.02 170.898 17.38C171.231 17.7267 171.731 17.9 172.398 17.9C172.864 17.9 173.238 17.82 173.518 17.66C173.811 17.5 174.004 17.28 174.098 17H177.038C176.798 17.96 176.251 18.7333 175.398 19.32C174.558 19.9067 173.544 20.2 172.358 20.2ZM174.278 13.66V13.16C174.278 12.48 174.118 11.96 173.798 11.6C173.491 11.24 173.011 11.06 172.358 11.06C171.704 11.06 171.211 11.2467 170.878 11.62C170.558 11.9933 170.398 12.52 170.398 13.2V13.5L174.478 13.46L174.278 13.66Z" fill="white"/>
</mask>
<g mask="url(#mask0_23_16)">
<rect x="162.181" y="-709" width="1172" height="913" transform="rotate(31.5103 162.181 -709)" fill="white"/>
</g>
<defs>
<filter id="filter0_d_23_16" x="3.05176e-05" y="2.26453" width="23.9742" height="21.4709" filterUnits="userSpaceOnUse" color-interpolation-filters="sRGB">
<feFlood flood-opacity="0" result="BackgroundImageFix"/>
<feColorMatrix in="SourceAlpha" type="matrix" values="0 0 0 0 0 0 0 0 0 0 0 0 0 0 0 0 0 0 127 0" result="hardAlpha"/>
<feOffset dy="0.206451"/>
<feGaussianBlur stdDeviation="0.103226"/>
<feComposite in2="hardAlpha" operator="out"/>
<feColorMatrix type="matrix" values="0 0 0 0 0 0 0 0 0 0 0 0 0 0 0 0 0 0 0.25 0"/>
<feBlend mode="normal" in2="BackgroundImageFix" result="effect1_dropShadow_23_16"/>
<feBlend mode="normal" in="SourceGraphic" in2="effect1_dropShadow_23_16" result="shape"/>
</filter>
<clipPath id="clip0_23_16">
<rect width="24" height="21.4709" fill="white" transform="translate(0 2.26453)"/>
</clipPath>
</defs>
</svg>
